<?xml version="1.0" encoding="iso-8859-1"?>
<!-- Generator: Adobe Illustrator 15.0.0, SVG Export Plug-In . SVG Version: 6.00 Build 0)  -->
<!DOCTYPE svg PUBLIC "-//W3C//DTD SVG 1.1//EN" "http://www.w3.org/Graphics/SVG/1.1/DTD/svg11.dtd">
<svg fill="#f73a3f" version="1.1" id="&#x56FE;&#x5C42;_1" xmlns="http://www.w3.org/2000/svg" xmlns:xlink="http://www.w3.org/1999/xlink" x="0px"
	 y="0px" width="49.992px" height="49.992px" viewBox="0 0 49.992 49.992" style="enable-background:new 0 0 49.992 49.992;"
	 xml:space="preserve">
<path style="fill-rule:evenodd;clip-rule:evenodd;" d="M25.331,49.99C11.528,50.176,0.187,39.13,0.002,25.333
	C-0.182,11.528,10.861,0.187,24.664,0.002C38.466-0.182,49.81,10.86,49.992,24.659C50.176,38.465,39.134,49.805,25.331,49.99z
	 M25.004,4.492c-11.322,0-20.5,9.178-20.5,20.5c0,11.322,9.178,20.5,20.5,20.5s20.5-9.178,20.5-20.5
	C45.504,13.67,36.327,4.492,25.004,4.492z M38.004,26.992h-11v11c0,0.553-0.447,1-1,1h-2c-0.553,0-1-0.447-1-1v-11h-11
	c-0.553,0-1-0.447-1-1v-2c0-0.552,0.447-1,1-1h11v-11c0-0.552,0.447-1,1-1h2c0.553,0,1,0.448,1,1v11h11c0.552,0,1,0.448,1,1v2
	C39.004,26.545,38.556,26.992,38.004,26.992z"/>
</svg>
