<?xml version="1.0" encoding="iso-8859-1"?>
<!-- Generator: Adobe Illustrator 15.0.0, SVG Export Plug-In . SVG Version: 6.00 Build 0)  -->
<!DOCTYPE svg PUBLIC "-//W3C//DTD SVG 1.1//EN" "http://www.w3.org/Graphics/SVG/1.1/DTD/svg11.dtd">
<svg fill="#c8c8c8" version="1.1" id="&#x56FE;&#x5C42;_1" xmlns="http://www.w3.org/2000/svg" xmlns:xlink="http://www.w3.org/1999/xlink" x="0px"
	 y="0px" width="48px" height="48px" viewBox="0 0 48 48" style="enable-background:new 0 0 48 48;" xml:space="preserve">
<g>
	<g>
		<path style="fill-rule:evenodd;clip-rule:evenodd;" d="M24,0C10.745,0,0,10.746,0,24c0,13.255,10.745,24,24,24s24-10.745,24-24
			C48,10.746,37.255,0,24,0z M33.199,28.956c0.781,0.781,0.781,2.048,0,2.829l-1.414,1.413c-0.781,0.781-2.048,0.781-2.829,0
			l-4.949-4.949l-4.95,4.949c-0.781,0.781-2.047,0.781-2.829,0l-1.414-1.413c-0.781-0.781-0.781-2.048,0-2.829l4.95-4.95l-4.95-4.95
			c-0.781-0.781-0.781-2.047,0-2.828l1.414-1.415c0.781-0.781,2.047-0.781,2.829,0l4.95,4.95l4.949-4.95
			c0.781-0.781,2.048-0.781,2.829,0l1.414,1.415c0.781,0.781,0.781,2.047,0,2.828l-4.95,4.95L33.199,28.956z"/>
	</g>
</g>
</svg>
