<?xml version="1.0" encoding="iso-8859-1"?>
<!-- Generator: Adobe Illustrator 15.0.0, SVG Export Plug-In . SVG Version: 6.00 Build 0)  -->
<!DOCTYPE svg PUBLIC "-//W3C//DTD SVG 1.1//EN" "http://www.w3.org/Graphics/SVG/1.1/DTD/svg11.dtd">
<svg fill="#f73b3f" version="1.1" id="&#x56FE;&#x5C42;_1" xmlns="http://www.w3.org/2000/svg" xmlns:xlink="http://www.w3.org/1999/xlink" x="0px"
	 y="0px" width="61.157px" height="57.058px" viewBox="0 0 61.157 57.058" style="enable-background:new 0 0 61.157 57.058;"
	 xml:space="preserve">
<g>
	<g>
		<path style="fill-rule:evenodd;clip-rule:evenodd;" d="M26.819,14.647L5.94,33.058c0,0.078,0,5,0,5v14c0,3.021,1.694,5,4.971,5
			H21.94v-8c0-4.971,4.029-9,9-9s9,4.029,9,9v8h10.168c3.346,0,4.825-1.514,4.825-4.533V36.257c0,0,0.007-3.026,0.007-3.199
			L34.345,14.647C32.271,12.513,28.892,12.513,26.819,14.647z M59.94,23.808c-0.5-0.25-23.709-21.25-23.709-21.25
			s-2.486-2.345-5.424-2.55c-1.926-0.135-4.439,1.529-5.825,2.717c-0.25,0-24.042,21.333-24.042,21.333s-2,2.667-0.167,4.75
			c0,0.25,1.75,2,4.5,0.917l20.792-18.417c0,0,4.3-4.2,9,0c0.25,0,20.375,18.25,20.375,18.25s2.25,1.666,4.75-0.333
			C60.19,29.308,62.524,26.475,59.94,23.808z"/>
	</g>
</g>
</svg>
