<?xml version="1.0" encoding="utf-8"?>
<!-- Generator: Adobe Illustrator 21.0.2, SVG Export Plug-In . SVG Version: 6.00 Build 0)  -->
<svg version="1.1" id="图层_1" xmlns="http://www.w3.org/2000/svg" xmlns:xlink="http://www.w3.org/1999/xlink" x="0px" y="0px"
	 viewBox="0 0 100 100" style="enable-background:new 0 0 100 100;" xml:space="preserve">
<style type="text/css">
	.st0{clip-path:url(#SVGID_2_);}
	.st1{clip-path:url(#SVGID_4_);enable-background:new    ;}
	.st2{clip-path:url(#SVGID_6_);}
	.st3{clip-path:url(#SVGID_8_);}
	.st4{clip-path:url(#SVGID_10_);fill:#717171;}
</style>
<g>
	<defs>
		<rect id="SVGID_1_" x="7" y="13.9" width="88" height="72"/>
	</defs>
	<clipPath id="SVGID_2_">
		<use xlink:href="#SVGID_1_"  style="overflow:visible;"/>
	</clipPath>
	<g class="st0">
		<defs>
			<rect id="SVGID_3_" x="1" y="-0.1" width="100" height="100"/>
		</defs>
		<clipPath id="SVGID_4_">
			<use xlink:href="#SVGID_3_"  style="overflow:visible;"/>
		</clipPath>
		<g class="st1">
			<g>
				<defs>
					<rect id="SVGID_5_" x="5" y="11.9" width="92" height="74"/>
				</defs>
				<clipPath id="SVGID_6_">
					<use xlink:href="#SVGID_5_"  style="overflow:visible;"/>
				</clipPath>
				<g class="st2">
					<defs>
						<path id="SVGID_7_" d="M95,52.4c0-0.7,0-1.4-0.4-2L83.5,31.8c-0.9-1.6-3-2.1-4.6-1.2c-1.6,0.9-2.2,2.9-1.3,4.4l8.6,14.4H71.8
							c-1.6,0-3.1,1.2-3.3,2.8c-0.7,4.1-2.9,7.7-6,10.3c-3,2.5-7,4.1-11.4,4.1c-4.4,0-8.4-1.5-11.5-4.1c-3.1-2.5-5.2-6.1-6-10.1
							c-0.1-1.7-1.5-3-3.3-3.1H15.7L24.4,35c0.9-1.5,0.4-3.5-1.2-4.4c-1.6-0.9-3.7-0.4-4.6,1.2L7.5,50.3c-0.4,0.6-0.5,1.3-0.4,2
							c0,0.1,0,0.2,0,0.4v29.9c0,1.8,1.5,3.3,3.4,3.3h81.2c1.9,0,3.4-1.5,3.4-3.3V52.7V52.4z M88.2,79.3L88.2,79.3H13.8V56h13.7
							c1.3,4.6,4,8.5,7.6,11.6C39.4,71,45,73.2,51,73.2s11.6-2.1,15.8-5.6c3.6-3,6.3-7,7.6-11.6h13.7V79.3z M31.9,36.3L31.9,36.3h10
							v20.1c0,1.1,0.9,1.9,2,1.9h14.1c1.2,0,2-0.9,2-1.9V36.3h10c1.1,0,2-0.9,2-2c0-0.5-0.2-1-0.6-1.4l0,0L52.4,14.5
							c-0.8-0.8-2.1-0.8-2.9,0L30.5,33c-0.8,0.8-0.8,2,0,2.8C30.9,36.2,31.4,36.3,31.9,36.3z M51,18.7L51,18.7l14.2,13.7h-7.2
							c-1.1,0-2,0.9-2,2v20.1H46V34.4c0-1.1-0.9-2-2-2h-7.1L51,18.7z"/>
					</defs>
					<clipPath id="SVGID_8_">
						<use xlink:href="#SVGID_7_"  style="overflow:visible;"/>
					</clipPath>
					<g class="st3">
						<defs>
							<rect id="SVGID_9_" x="7" y="13.9" width="88" height="72"/>
						</defs>
						<clipPath id="SVGID_10_">
							<use xlink:href="#SVGID_9_"  style="overflow:visible;"/>
						</clipPath>
						<rect x="-3" y="3.9" class="st4" width="108" height="92"/>
					</g>
				</g>
			</g>
		</g>
	</g>
</g>
</svg>
