<?xml version="1.0" encoding="iso-8859-1"?>
<!-- Generator: Adobe Illustrator 15.0.0, SVG Export Plug-In . SVG Version: 6.00 Build 0)  -->
<!DOCTYPE svg PUBLIC "-//W3C//DTD SVG 1.1//EN" "http://www.w3.org/Graphics/SVG/1.1/DTD/svg11.dtd">
<svg fill="#f73b3f" version="1.1" id="&#x56FE;&#x5C42;_1" xmlns="http://www.w3.org/2000/svg" xmlns:xlink="http://www.w3.org/1999/xlink" x="0px"
	 y="0px" width="52.011px" height="57px" viewBox="0 0 52.011 57" style="enable-background:new 0 0 52.011 57;"
	 xml:space="preserve">
<g>
	<path d="M25.449,30.779c8.388,0,15.188-6.89,15.188-15.39c0-8.307-6.5-15.059-14.625-15.361V0h-15.75v14.82l0.029-0.01
		c-0.007,0.194-0.029,0.384-0.029,0.58C10.261,23.89,17.061,30.779,25.449,30.779z M32.733,18.96
		c-0.288,3.825-3.436,6.84-7.284,6.84s-6.996-3.015-7.284-6.84H32.733z"/>
	<path d="M42.011,34c-0.066-0.021-31,0-31,0s-10.775,1.252-11,12.88c-0.025-0.022,0,10.12,0,10.12h52V46.74
		C52.011,46.74,51.96,35.905,42.011,34z"/>
</g>
</svg>
