<?xml version="1.0" encoding="utf-8"?>
<!-- Generator: Adobe Illustrator 21.0.2, SVG Export Plug-In . SVG Version: 6.00 Build 0)  -->
<svg version="1.1" id="图层_1" xmlns="http://www.w3.org/2000/svg" xmlns:xlink="http://www.w3.org/1999/xlink" x="0px" y="0px"
	 viewBox="0 0 100 100" style="enable-background:new 0 0 100 100;" xml:space="preserve">
<style type="text/css">
	.st0{clip-path:url(#SVGID_2_);}
	.st1{clip-path:url(#SVGID_4_);enable-background:new    ;}
	.st2{clip-path:url(#SVGID_6_);}
	.st3{clip-path:url(#SVGID_8_);fill:#0070C9;}
</style>
<g>
	<defs>
		<path id="SVGID_1_" d="M66.9,67.6c-4.2,3.5-9.8,5.6-15.8,5.6c-6,0-11.6-2.1-15.8-5.6c-3.6-3-6.3-7-7.6-11.6H13.8v23.3h74.4V56.1
			H74.5C73.1,60.7,70.4,64.6,66.9,67.6z M18.5,31.9c0.6-1.1,1.7-1.7,2.9-1.7c0.6,0,1.2,0.1,1.7,0.5c1.6,0.9,2.2,2.9,1.2,4.4
			l-8.6,14.4h14.6c1.7,0,3.2,1.4,3.3,3.1c0.7,4,2.9,7.5,6,10.1c3.1,2.5,7.1,4.1,11.5,4.1c4.4,0,8.4-1.5,11.4-4.1
			c3.2-2.6,5.3-6.2,6-10.3c0.2-1.6,1.7-2.8,3.3-2.8h14.5l-8.6-14.4c-0.9-1.5-0.3-3.5,1.3-4.4c0.5-0.3,1.1-0.5,1.7-0.5
			c1.2,0,2.3,0.6,2.9,1.7l11.1,18.5c0.3,0.5,0.4,1.1,0.4,1.7v0.1c0,0.1,0,0.2,0,0.3v0.4v29.9c0,1.8-1.5,3.3-3.4,3.3H10.4
			C8.5,86,7,84.5,7,82.7V52.8c0-0.1,0-0.3,0-0.4c-0.1-0.7,0-1.4,0.4-2L18.5,31.9z M51,18.8L36.8,32.5H44c1.1,0,2,0.9,2,2v20.1h10
			V34.5c0-1.1,0.9-2,2-2h7.2L51,18.8z M51,14h0.1c0.5,0,1,0.2,1.4,0.6l19.1,18.5l0,0c0.3,0.3,0.6,0.8,0.6,1.4c0,1.1-0.9,2-2,2h-10
			v20.1c0,1.1-0.9,1.9-2,1.9H44c-1.1,0-2-0.9-2-1.9V36.4h-10c-0.5,0-1-0.2-1.4-0.6c-0.8-0.8-0.8-2,0-2.8l19.1-18.5
			C50,14.2,50.5,14,51,14z"/>
	</defs>
	<clipPath id="SVGID_2_">
		<use xlink:href="#SVGID_1_"  style="overflow:visible;"/>
	</clipPath>
	<g class="st0">
		<defs>
			<rect id="SVGID_3_" x="4" y="4" width="93" height="93"/>
		</defs>
		<clipPath id="SVGID_4_">
			<use xlink:href="#SVGID_3_"  style="overflow:visible;"/>
		</clipPath>
		<g class="st1">
			<g>
				<defs>
					<rect id="SVGID_5_" x="2" y="9" width="98" height="82"/>
				</defs>
				<clipPath id="SVGID_6_">
					<use xlink:href="#SVGID_5_"  style="overflow:visible;"/>
				</clipPath>
				<g class="st2">
					<defs>
						<rect id="SVGID_7_" x="7" y="14" width="88" height="72"/>
					</defs>
					<clipPath id="SVGID_8_">
						<use xlink:href="#SVGID_7_"  style="overflow:visible;"/>
					</clipPath>
					<rect x="2" y="9" class="st3" width="98" height="82"/>
				</g>
			</g>
		</g>
	</g>
</g>
</svg>
