<?xml version="1.0" encoding="iso-8859-1"?>
<!-- Generator: Adobe Illustrator 15.0.0, SVG Export Plug-In . SVG Version: 6.00 Build 0)  -->
<!DOCTYPE svg PUBLIC "-//W3C//DTD SVG 1.1//EN" "http://www.w3.org/Graphics/SVG/1.1/DTD/svg11.dtd">
<svg fill="#b3b5bc" version="1.1" id="&#x56FE;&#x5C42;_1" xmlns="http://www.w3.org/2000/svg" xmlns:xlink="http://www.w3.org/1999/xlink" x="0px"
	 y="0px" width="51.086px" height="58.357px" viewBox="0 0 51.086 58.357" style="enable-background:new 0 0 51.086 58.357;"
	 xml:space="preserve">
<path d="M44.53,0.004H6.472C6.595,0.004,0-0.401,0,6.476v46.055c0,6.877,4.595,5.472,4.472,5.472c0,0,21.493-8.856,21.528-9
	c0.131,0.286,20.53,9,20.53,9c0.001-0.125,4.47,2.405,4.47-4.472V6.476C51.25,6.474,51.406,0.004,44.53,0.004z M28.629,36.172v3.831
	h-4.456v-3.755c-4.337-0.513-7.172-3.899-7.172-3.899l2.353-3.545c0,0,3.483,3.326,6.845,3.326c1.815,0,3.463-1.107,3.463-3.09
	c0-4.101-11.14-3.691-11.14-11.039c0-3.521,1.918-6.254,5.65-6.868v-4.13h4.455v4.061c3.901,0.34,5.171,2.57,5.171,2.57
	l-2.254,3.514c0,0-2.289-2.044-5.278-2.044c-2.019,0-3.076,1.118-3.076,2.829c0,4.066,10.809,3.349,10.81,11.005
	C34.001,32.424,32.73,35.625,28.629,36.172z"/>
</svg>
