<?xml version="1.0" encoding="iso-8859-1"?>
<!-- Generator: Adobe Illustrator 15.0.0, SVG Export Plug-In . SVG Version: 6.00 Build 0)  -->
<!DOCTYPE svg PUBLIC "-//W3C//DTD SVG 1.1//EN" "http://www.w3.org/Graphics/SVG/1.1/DTD/svg11.dtd">
<svg fill="#a3a8ad" version="1.1" id="&#x56FE;&#x5C42;_1" xmlns="http://www.w3.org/2000/svg" xmlns:xlink="http://www.w3.org/1999/xlink" x="0px"
	 y="0px" width="48.992px" height="49.992px" viewBox="0 0 48.992 49.992" style="enable-background:new 0 0 48.992 49.992;"
	 xml:space="preserve">
<path style="fill-rule:evenodd;clip-rule:evenodd;" d="M24.168,0.002C10.641,0.187-0.181,11.528,0,25.333
	C0.181,39.13,11.295,50.176,24.822,49.99S49.171,38.465,48.99,24.659C48.812,10.86,37.694-0.182,24.168,0.002z M26.884,8.333
	c2.489,0,3.224,1.473,3.224,3.159c0,2.107-1.654,4.054-4.474,4.054c-2.358,0-3.48-1.211-3.414-3.211
	C22.221,10.648,23.605,8.333,26.884,8.333z M20.498,40.619c-1.702,0-2.948-1.055-1.758-5.689l1.951-8.217
	c0.339-1.317,0.395-1.845,0-1.845c-0.509,0-2.719,0.911-4.025,1.807l-0.85-1.421c4.142-3.527,8.902-5.596,10.942-5.596
	c1.7,0,1.982,2.054,1.134,5.213l-2.236,8.639c-0.395,1.527-0.224,2.055,0.17,2.055c0.509,0,2.184-0.631,3.829-1.95l0.961,1.317
	C26.593,39.037,22.202,40.619,20.498,40.619z"/>
</svg>
