<?xml version="1.0" encoding="iso-8859-1"?>
<!-- Generator: Adobe Illustrator 15.0.0, SVG Export Plug-In . SVG Version: 6.00 Build 0)  -->
<!DOCTYPE svg PUBLIC "-//W3C//DTD SVG 1.1//EN" "http://www.w3.org/Graphics/SVG/1.1/DTD/svg11.dtd">
<svg fill="#a3a8ad" version="1.1" id="&#x56FE;&#x5C42;_1" xmlns="http://www.w3.org/2000/svg" xmlns:xlink="http://www.w3.org/1999/xlink" x="0px"
	 y="0px" width="47.017px" height="60.009px" viewBox="0 0 47.017 60.009" style="enable-background:new 0 0 47.017 60.009;"
	 xml:space="preserve">
<path d="M23.633,15.002c-4.414,0-7.992,3.583-7.992,8.001c0,4.419,3.578,8,7.992,8s7.993-3.581,7.993-8
	C31.626,18.584,28.047,15.002,23.633,15.002L23.633,15.002L23.633,15.002z M23.508,0C10.525,0,0,10.077,0,22.503
	c0,17.837,23.508,37.505,23.508,37.505s23.509-20.323,23.509-37.505C47.017,10.077,36.49,0,23.508,0L23.508,0L23.508,0z
	 M23.522,37.006c-8.007,0-14.5-6.271-14.5-14.002s6.492-14.002,14.5-14.002c8.008,0,14.5,6.27,14.5,14.002
	S31.53,37.006,23.522,37.006L23.522,37.006L23.522,37.006z M23.522,37.006"/>
</svg>
