<?xml version="1.0" encoding="iso-8859-1"?>
<!-- Generator: Adobe Illustrator 15.0.0, SVG Export Plug-In . SVG Version: 6.00 Build 0)  -->
<!DOCTYPE svg PUBLIC "-//W3C//DTD SVG 1.1//EN" "http://www.w3.org/Graphics/SVG/1.1/DTD/svg11.dtd">
<svg fill="#a3a8ad" version="1.1" id="&#x56FE;&#x5C42;_1" xmlns="http://www.w3.org/2000/svg" xmlns:xlink="http://www.w3.org/1999/xlink" x="0px"
	 y="0px" width="48.992px" height="49.992px" viewBox="0 0 48.992 49.992" style="enable-background:new 0 0 48.992 49.992;"
	 xml:space="preserve">
<path style="fill-rule:evenodd;clip-rule:evenodd;" d="M24.168,0.002C10.641,0.187-0.181,11.528,0,25.333
	C0.181,39.13,11.295,50.176,24.822,49.99C38.35,49.805,49.171,38.465,48.99,24.659C48.812,10.86,37.694-0.182,24.168,0.002z
	 M26.139,40.182h-5.236v-4.91h5.236V40.182z M32.242,23.513c-0.615,0.645-1.445,1.254-3.611,2.688
	c-2.24,1.506-2.781,2.33-2.781,4.303c0,0.572,0.036,1.074,0.108,1.791h-4.839c0.072-0.645,0.072-1.003,0.072-1.576v-0.574
	c0-1.936,0.47-3.405,1.481-4.66c0.758-0.932,1.047-1.183,3.395-2.725c2.311-1.505,3.178-2.653,3.178-4.266
	c0-2.151-1.914-3.585-4.767-3.585c-2.095,0-3.647,0.717-4.55,2.043c-0.505,0.753-0.722,1.362-0.867,2.724l-5.345-0.645
	c0.578-2.617,1.3-3.979,2.853-5.413c1.806-1.613,4.622-2.509,7.981-2.509c3.033,0,5.452,0.717,7.259,2.151
	c1.732,1.362,2.563,3.047,2.563,5.198C34.372,20.466,33.686,22.115,32.242,23.513z"/>
</svg>
