<?xml version="1.0" encoding="iso-8859-1"?>
<!-- Generator: Adobe Illustrator 15.0.0, SVG Export Plug-In . SVG Version: 6.00 Build 0)  -->
<!DOCTYPE svg PUBLIC "-//W3C//DTD SVG 1.1//EN" "http://www.w3.org/Graphics/SVG/1.1/DTD/svg11.dtd">
<svg fill="#b8b8b8" version="1.1" id="&#x56FE;&#x5C42;_1" xmlns="http://www.w3.org/2000/svg" xmlns:xlink="http://www.w3.org/1999/xlink" x="0px"
	 y="0px" width="49.96px" height="50px" viewBox="0 0 49.96 50" style="enable-background:new 0 0 49.96 50;" xml:space="preserve">
<g>
	<g>
		<path d="M24.96,0C11.154,0-0.039,11.193-0.039,25c0,13.808,11.192,25,24.999,25s25-11.192,25-25C49.96,11.193,38.767,0,24.96,0z
			 M24.96,46.592c-11.905,0-21.59-9.686-21.59-21.592c0-11.905,9.685-21.591,21.59-21.591c11.906,0,21.592,9.686,21.592,21.591
			C46.552,36.907,36.867,46.592,24.96,46.592z M37.013,16.201c-0.453,0-0.887,0.18-1.206,0.5L21.55,30.958l-6.299-6.299
			c-0.32-0.32-0.753-0.5-1.206-0.5s-0.885,0.18-1.205,0.5c-0.32,0.319-0.5,0.753-0.5,1.206c0,0.452,0.18,0.885,0.5,1.205
			l7.504,7.506c0.319,0.319,0.753,0.499,1.206,0.499s0.886-0.18,1.205-0.499l15.463-15.463c0.666-0.666,0.666-1.745,0-2.411
			C37.898,16.381,37.464,16.201,37.013,16.201z"/>
	</g>
</g>
</svg>
