<?xml version="1.0" encoding="iso-8859-1"?>
<!-- Generator: Adobe Illustrator 15.0.0, SVG Export Plug-In . SVG Version: 6.00 Build 0)  -->
<!DOCTYPE svg PUBLIC "-//W3C//DTD SVG 1.1//EN" "http://www.w3.org/Graphics/SVG/1.1/DTD/svg11.dtd">
<svg fill="#f73b3f" version="1.1" id="&#x56FE;&#x5C42;_1" xmlns="http://www.w3.org/2000/svg" xmlns:xlink="http://www.w3.org/1999/xlink" x="0px"
	 y="0px" width="58px" height="41.999px" viewBox="0 0 58 41.999" style="enable-background:new 0 0 58 41.999;"
	 xml:space="preserve">
<g>
	<g>
		<path style="fill-rule:evenodd;clip-rule:evenodd;" d="M57-0.001H12c-0.553,0-1,0.447-1,1v2c0,0.552,0.447,1,1,1h45
			c0.552,0,1-0.448,1-1v-2C58,0.446,57.552-0.001,57-0.001z M57,37.999H12c-0.553,0-1,0.447-1,1v2c0,0.553,0.447,1,1,1h45
			c0.552,0,1-0.447,1-1v-2C58,38.446,57.552,37.999,57,37.999z M47,21.999v-2c0-0.552-0.448-1-1-1H1c-0.553,0-1,0.448-1,1v2
			c0,0.553,0.447,1,1,1h45C46.552,22.999,47,22.552,47,21.999z"/>
	</g>
</g>
</svg>
