<?xml version="1.0" encoding="iso-8859-1"?>
<!-- Generator: Adobe Illustrator 15.0.0, SVG Export Plug-In . SVG Version: 6.00 Build 0)  -->
<!DOCTYPE svg PUBLIC "-//W3C//DTD SVG 1.1//EN" "http://www.w3.org/Graphics/SVG/1.1/DTD/svg11.dtd">
<svg fill="#f9493e" version="1.1" id="&#x56FE;&#x5C42;_1" xmlns="http://www.w3.org/2000/svg" xmlns:xlink="http://www.w3.org/1999/xlink" x="0px"
	 y="0px" width="50.999px" height="45.001px" viewBox="0 0 50.999 45.001" style="enable-background:new 0 0 50.999 45.001;"
	 xml:space="preserve">
<path d="M46.564,45.001H4.435c-2.449,0-4.435-2.015-4.435-4.5V10.125c0-2.485,1.985-4.5,4.435-4.5h9.423l2.771-4.5
	C16.63,0.504,18.235,0,18.848,0h13.304c0.612,0,2.218,0.504,2.218,1.125l2.771,4.5h9.424c2.449,0,4.435,2.015,4.435,4.5v30.376
	C50.999,42.987,49.014,45.001,46.564,45.001 M25.5,10.125c-7.96,0-14.413,6.548-14.413,14.625c0,8.078,6.453,14.625,14.413,14.625
	c7.959,0,14.413-6.547,14.413-14.624V24.75C39.912,16.673,33.459,10.125,25.5,10.125 M25.5,34.875
	c-5.511,0-9.979-4.533-9.979-10.125c0-5.591,4.467-10.125,9.979-10.125c5.51,0,9.978,4.533,9.978,10.125
	C35.478,30.343,31.01,34.875,25.5,34.875 M25.5,34.875 M25.5,34.875"/>
</svg>
