<?xml version="1.0" standalone="no"?><!DOCTYPE svg PUBLIC "-//W3C//DTD SVG 1.1//EN" "http://www.w3.org/Graphics/SVG/1.1/DTD/svg11.dtd"><svg t="1530064861489" class="icon" style="" viewBox="0 0 1024 1024" version="1.1" xmlns="http://www.w3.org/2000/svg" p-id="2230" xmlns:xlink="http://www.w3.org/1999/xlink" width="200" height="200"><defs><style type="text/css"></style></defs><path d="M513.661338 319.136457c98.212836 0 175.365007 77.098959 175.365007 175.284165 0 21.061688-3.541663 45.61592-14.020318 63.130829l101.655238 101.678774c52.593845-45.560662 94.662986-101.678774 119.220289-164.809603-59.58712-154.250106-210.397894-262.99481-385.713782-262.99481-49.103348 0-94.666056 10.527774-140.27686 24.576745l77.200266 77.107145C468.099652 322.599326 492.603743 319.136457 513.661338 319.136457M163.038772 224.438679l80.644715 80.648808 14.021342 14.048971c-59.637262 45.530986-105.198947 105.195877-129.750109 175.284165 59.58098 154.279782 210.395848 262.99481 385.706619 262.99481 52.601009 0 105.198947-10.504238 154.304342-28.019147l14.024411 13.997805 101.703333 101.729939 45.561685-45.610804-620.654652-620.687398L163.038772 224.438679zM355.864452 417.268452l52.602032 52.601009 0 24.551162c0 59.609633 45.610804 105.197924 105.194854 105.197924 7.039323 0 14.026458 0 24.554232-3.51915l52.597939 52.601009c-24.551162 14.048971-49.054229 21.035082-77.152171 21.035082-98.1586 0-175.310771-77.102029-175.310771-175.314865C338.350566 466.400452 345.336678 441.819614 355.864452 417.268452M506.67625 389.225769l108.691491 108.742656 0-7.062859c0-59.58712-45.561685-105.20304-105.19997-105.20304C510.168794 389.225769 510.168794 389.225769 506.67625 389.225769" p-id="2231" fill="#a3a8ad"></path></svg>