<?xml version="1.0" standalone="no"?><!DOCTYPE svg PUBLIC "-//W3C//DTD SVG 1.1//EN" "http://www.w3.org/Graphics/SVG/1.1/DTD/svg11.dtd"><svg t="1522033607182" class="icon" style="" viewBox="0 0 1024 1024" version="1.1" xmlns="http://www.w3.org/2000/svg" p-id="3917" xmlns:xlink="http://www.w3.org/1999/xlink" width="200" height="200"><defs><style type="text/css"></style></defs><path d="M974.933333 497.066667l-213.333333-213.333333C757.333333 279.466667 753.066667 277.333333 746.666667 277.333333c-12.8 0-21.333333 8.533333-21.333333 21.333333 0 6.4 2.133333 10.666667 6.4 14.933333l177.066667 177.066667L64 490.666667c-12.8 0-21.333333 8.533333-21.333333 21.333333s8.533333 21.333333 21.333333 21.333333l844.8 0-177.066667 177.066667C727.466667 714.666667 725.333333 718.933333 725.333333 725.333333c0 12.8 8.533333 21.333333 21.333333 21.333333 6.4 0 10.666667-2.133333 14.933333-6.4l213.333333-213.333333c4.266667-4.266667 6.4-8.533333 6.4-14.933333S979.2 501.333333 974.933333 497.066667z" p-id="3918" fill="#ffffff"></path></svg>