<?xml version="1.0" encoding="utf-8"?>
<!-- Generator: Adobe Illustrator 21.0.2, SVG Export Plug-In . SVG Version: 6.00 Build 0)  -->
<svg version="1.1" id="图层_1" xmlns="http://www.w3.org/2000/svg" xmlns:xlink="http://www.w3.org/1999/xlink" x="0px" y="0px"
	 viewBox="0 0 43 43" style="enable-background:new 0 0 43 43;" xml:space="preserve">
<style type="text/css">
	
		.st0{clip-path:url(#SVGID_2_);fill:none;stroke:#0070C9;stroke-width:2.5;stroke-linecap:round;stroke-linejoin:round;stroke-miterlimit:10;}
	
		.st1{clip-path:url(#SVGID_4_);fill:none;stroke:#0070C9;stroke-width:2.5;stroke-linecap:round;stroke-linejoin:round;stroke-miterlimit:10;}
	
		.st2{clip-path:url(#SVGID_6_);fill:none;stroke:#0070C9;stroke-width:2.5;stroke-linecap:round;stroke-linejoin:round;stroke-miterlimit:10;}
	
		.st3{clip-path:url(#SVGID_8_);fill:none;stroke:#0070C9;stroke-width:2.5;stroke-linecap:round;stroke-linejoin:round;stroke-miterlimit:10;}
	
		.st4{clip-path:url(#SVGID_10_);fill:none;stroke:#0070C9;stroke-width:2.5;stroke-linecap:round;stroke-linejoin:round;stroke-miterlimit:10;}
	
		.st5{clip-path:url(#SVGID_12_);fill:none;stroke:#0070C9;stroke-width:2.5;stroke-linecap:round;stroke-linejoin:round;stroke-miterlimit:10;}
	
		.st6{clip-path:url(#SVGID_14_);fill:none;stroke:#0070C9;stroke-width:2.5;stroke-linecap:round;stroke-linejoin:round;stroke-miterlimit:10;}
	.st7{clip-path:url(#SVGID_16_);}
	.st8{clip-path:url(#SVGID_18_);fill:#0070C9;}
	.st9{clip-path:url(#SVGID_20_);}
	.st10{clip-path:url(#SVGID_22_);fill:#FFFFFF;}
	.st11{clip-path:url(#SVGID_24_);}
	.st12{clip-path:url(#SVGID_26_);fill:#0070C9;}
	.st13{clip-path:url(#SVGID_28_);}
	.st14{clip-path:url(#SVGID_30_);fill:#FFFFFF;}
	.st15{clip-path:url(#SVGID_32_);fill:none;stroke:#FFFFFF;stroke-miterlimit:10;}
</style>
<g>
	<defs>
		<rect id="SVGID_1_" x="-354.1" y="-645.1" width="750" height="1334"/>
	</defs>
	<clipPath id="SVGID_2_">
		<use xlink:href="#SVGID_1_"  style="overflow:visible;"/>
	</clipPath>
	<path class="st0" d="M139.9-424.4v-10.8c0-2.2-1.8-4-4-4h-12.6h-19.4c-2.2,0-4,1.8-4,4v10.8"/>
	<path class="st0" d="M139.9-413.9v10.8c0,2.2-1.8,4-4,4h-32c-2.2,0-4-1.8-4-4v-10.8"/>
	<line class="st0" x1="99.9" y1="-419.1" x2="139.9" y2="-419.1"/>
</g>
<g>
	<defs>
		<rect id="SVGID_3_" x="-354.1" y="-645.1" width="750" height="1334"/>
	</defs>
	<clipPath id="SVGID_4_">
		<use xlink:href="#SVGID_3_"  style="overflow:visible;"/>
	</clipPath>
	<path class="st1" d="M139.9-424.4v-10.8c0-2.2-1.8-4-4-4h-12.6h-19.4c-2.2,0-4,1.8-4,4v10.8"/>
	<path class="st1" d="M139.9-413.9v10.8c0,2.2-1.8,4-4,4h-32c-2.2,0-4-1.8-4-4v-10.8"/>
	<line class="st1" x1="99.9" y1="-419.1" x2="139.9" y2="-419.1"/>
</g>
<g>
	<defs>
		<rect id="SVGID_5_" x="-354.1" y="-645.1" width="750" height="1334"/>
	</defs>
	<clipPath id="SVGID_6_">
		<use xlink:href="#SVGID_5_"  style="overflow:visible;"/>
	</clipPath>
	<path class="st2" d="M139.9-424.4v-10.8c0-2.2-1.8-4-4-4h-12.6h-19.4c-2.2,0-4,1.8-4,4v10.8"/>
	<path class="st2" d="M139.9-413.9v10.8c0,2.2-1.8,4-4,4h-32c-2.2,0-4-1.8-4-4v-10.8"/>
	<line class="st2" x1="99.9" y1="-419.1" x2="139.9" y2="-419.1"/>
</g>
<g>
	<defs>
		<rect id="SVGID_7_" x="-354.1" y="-645.1" width="750" height="1334"/>
	</defs>
	<clipPath id="SVGID_8_">
		<use xlink:href="#SVGID_7_"  style="overflow:visible;"/>
	</clipPath>
	<path class="st3" d="M139.9-424.4v-10.8c0-2.2-1.8-4-4-4h-12.6h-19.4c-2.2,0-4,1.8-4,4v10.8"/>
	<path class="st3" d="M139.9-413.9v10.8c0,2.2-1.8,4-4,4h-32c-2.2,0-4-1.8-4-4v-10.8"/>
	<line class="st3" x1="99.9" y1="-419.1" x2="139.9" y2="-419.1"/>
</g>
<g>
	<defs>
		<rect id="SVGID_9_" x="-354.1" y="-645.1" width="750" height="1334"/>
	</defs>
	<clipPath id="SVGID_10_">
		<use xlink:href="#SVGID_9_"  style="overflow:visible;"/>
	</clipPath>
	<path class="st4" d="M139.9-424.4v-10.8c0-2.2-1.8-4-4-4h-12.6h-19.4c-2.2,0-4,1.8-4,4v10.8"/>
	<path class="st4" d="M139.9-413.9v10.8c0,2.2-1.8,4-4,4h-32c-2.2,0-4-1.8-4-4v-10.8"/>
	<line class="st4" x1="99.9" y1="-419.1" x2="139.9" y2="-419.1"/>
</g>
<g>
	<defs>
		<rect id="SVGID_11_" x="-354.1" y="-645.1" width="750" height="1334"/>
	</defs>
	<clipPath id="SVGID_12_">
		<use xlink:href="#SVGID_11_"  style="overflow:visible;"/>
	</clipPath>
	<path class="st5" d="M139.9-424.4v-10.8c0-2.2-1.8-4-4-4h-12.6h-19.4c-2.2,0-4,1.8-4,4v10.8"/>
	<path class="st5" d="M139.9-413.9v10.8c0,2.2-1.8,4-4,4h-32c-2.2,0-4-1.8-4-4v-10.8"/>
	<line class="st5" x1="99.9" y1="-419.1" x2="139.9" y2="-419.1"/>
</g>
<g>
	<defs>
		<rect id="SVGID_13_" x="-354.1" y="-645.1" width="750" height="1334"/>
	</defs>
	<clipPath id="SVGID_14_">
		<use xlink:href="#SVGID_13_"  style="overflow:visible;"/>
	</clipPath>
	<path class="st6" d="M139.9-424.4v-10.8c0-2.2-1.8-4-4-4h-12.6h-19.4c-2.2,0-4,1.8-4,4v10.8"/>
	<path class="st6" d="M139.9-414.1v10.8c0,2.2-1.8,4-4,4h-32c-2.2,0-4-1.8-4-4v-10.8"/>
	<line class="st6" x1="99.9" y1="-419.1" x2="139.9" y2="-419.1"/>
</g>
<g>
	<defs>
		<path id="SVGID_15_" d="M4.7,4.4h32c1.7,0,3,1.3,3,3v28c0,1.7-1.3,3-3,3h-32c-1.7,0-3-1.3-3-3v-28C1.7,5.7,3.1,4.4,4.7,4.4z"/>
	</defs>
	<clipPath id="SVGID_16_">
		<use xlink:href="#SVGID_15_"  style="overflow:visible;"/>
	</clipPath>
	<g class="st7">
		<defs>
			<rect id="SVGID_17_" x="-24.3" y="-24.6" width="93" height="93"/>
		</defs>
		<clipPath id="SVGID_18_">
			<use xlink:href="#SVGID_17_"  style="overflow:visible;"/>
		</clipPath>
		<rect x="-3.3" y="-0.6" class="st8" width="48" height="44"/>
	</g>
</g>
<g>
	<defs>
		<rect id="SVGID_19_" x="21.7" y="14.4" width="21" height="12"/>
	</defs>
	<clipPath id="SVGID_20_">
		<use xlink:href="#SVGID_19_"  style="overflow:visible;"/>
	</clipPath>
	<g class="st9">
		<defs>
			<rect id="SVGID_21_" x="-24.3" y="-24.6" width="93" height="93"/>
		</defs>
		<clipPath id="SVGID_22_">
			<use xlink:href="#SVGID_21_"  style="overflow:visible;"/>
		</clipPath>
		<rect x="16.7" y="9.4" class="st10" width="31" height="22"/>
	</g>
</g>
<g>
	<defs>
		<path id="SVGID_23_" d="M23.2,15.4h18c0.3,0,0.5,0.2,0.5,0.5v9c0,0.3-0.2,0.5-0.5,0.5h-18c-0.3,0-0.5-0.2-0.5-0.5v-9
			C22.7,15.6,22.9,15.4,23.2,15.4z"/>
	</defs>
	<clipPath id="SVGID_24_">
		<use xlink:href="#SVGID_23_"  style="overflow:visible;"/>
	</clipPath>
	<g class="st11">
		<defs>
			<rect id="SVGID_25_" x="-24.3" y="-24.6" width="93" height="93"/>
		</defs>
		<clipPath id="SVGID_26_">
			<use xlink:href="#SVGID_25_"  style="overflow:visible;"/>
		</clipPath>
		<rect x="17.7" y="10.4" class="st12" width="29" height="20"/>
	</g>
</g>
<g>
	<defs>
		<circle id="SVGID_27_" cx="27.7" cy="20.4" r="2"/>
	</defs>
	<clipPath id="SVGID_28_">
		<use xlink:href="#SVGID_27_"  style="overflow:visible;"/>
	</clipPath>
	<g class="st13">
		<defs>
			<rect id="SVGID_29_" x="-24.3" y="-24.6" width="93" height="93"/>
		</defs>
		<clipPath id="SVGID_30_">
			<use xlink:href="#SVGID_29_"  style="overflow:visible;"/>
		</clipPath>
		<rect x="20.7" y="13.4" class="st14" width="14" height="14"/>
	</g>
</g>
<g>
	<defs>
		<rect id="SVGID_31_" x="-24.3" y="-24.6" width="93" height="93"/>
	</defs>
	<clipPath id="SVGID_32_">
		<use xlink:href="#SVGID_31_"  style="overflow:visible;"/>
	</clipPath>
	<circle class="st15" cx="27.7" cy="20.4" r="2"/>
</g>
</svg>
