<?xml version="1.0" encoding="utf-8"?>
<!-- Generator: Adobe Illustrator 21.0.2, SVG Export Plug-In . SVG Version: 6.00 Build 0)  -->
<svg version="1.1" id="图层_1" xmlns="http://www.w3.org/2000/svg" xmlns:xlink="http://www.w3.org/1999/xlink" x="0px" y="0px"
	 viewBox="0 0 100 100" style="enable-background:new 0 0 100 100;" xml:space="preserve">
<style type="text/css">
	.st0{clip-path:url(#SVGID_2_);}
	.st1{opacity:0.9;clip-path:url(#SVGID_4_);fill:#0070C9;}
	.st2{clip-path:url(#SVGID_6_);}
	.st3{clip-path:url(#SVGID_8_);fill:#0070C9;}
</style>
<g>
	<defs>
		<path id="SVGID_1_" d="M43.8,19.9V9.5l31.9,17.4L43.8,48l0-9.8l0-3.2c0,0-18,1.2-23.5,21.8C20.3,56.8,10.4,29.3,43.8,19.9z"/>
	</defs>
	<clipPath id="SVGID_2_">
		<use xlink:href="#SVGID_1_"  style="overflow:visible;"/>
	</clipPath>
	<g class="st0">
		<defs>
			<rect id="SVGID_3_" x="3.8" y="2" width="94.6" height="94.6"/>
		</defs>
		<clipPath id="SVGID_4_">
			<use xlink:href="#SVGID_3_"  style="overflow:visible;"/>
		</clipPath>
		<rect x="9.4" y="0.1" class="st1" width="75.7" height="66.2"/>
	</g>
</g>
<g>
	<defs>
		<path id="SVGID_5_" d="M83.7,43.6c0,0,9.9,27.6-23.5,36.9v10.4L28.4,73.5l31.9-21.1l0,9.8l0,3.2C60.2,65.4,78.2,64.2,83.7,43.6"/>
	</defs>
	<clipPath id="SVGID_6_">
		<use xlink:href="#SVGID_5_"  style="overflow:visible;"/>
	</clipPath>
	<g class="st2">
		<defs>
			<rect id="SVGID_7_" x="3.8" y="2" width="94.6" height="94.6"/>
		</defs>
		<clipPath id="SVGID_8_">
			<use xlink:href="#SVGID_7_"  style="overflow:visible;"/>
		</clipPath>
		<rect x="18.9" y="34.1" class="st3" width="75.7" height="66.2"/>
	</g>
</g>
</svg>
