<?xml version="1.0" encoding="iso-8859-1"?>
<!-- Generator: Adobe Illustrator 15.0.0, SVG Export Plug-In . SVG Version: 6.00 Build 0)  -->
<!DOCTYPE svg PUBLIC "-//W3C//DTD SVG 1.1//EN" "http://www.w3.org/Graphics/SVG/1.1/DTD/svg11.dtd">
<svg fill="#a3a8ad" version="1.1" id="&#x56FE;&#x5C42;_1" xmlns="http://www.w3.org/2000/svg" xmlns:xlink="http://www.w3.org/1999/xlink" x="0px"
	 y="0px" width="49px" height="50px" viewBox="0 0 49 50" style="enable-background:new 0 0 49 50;" xml:space="preserve">
<g>
	<path style="fill-rule:evenodd;clip-rule:evenodd;" d="M24.5,13.032h-0.14C24.342,13.006,21.375,22,21.375,22h6.219
		C27.594,22,24.456,12.987,24.5,13.032z"/>
	<path style="fill-rule:evenodd;clip-rule:evenodd;" d="M24.5,0C10.969,0,0,10.969,0,24.5c0,5.691,1.958,10.914,5.213,15.074L5,40
		L0.5,50l12.715-3.768C16.595,47.99,20.427,49,24.5,49C38.031,49,49,38.031,49,24.5S38.031,0,24.5,0z M21.382,9.991h6.235L35.906,32
		h-4.813l-2.188-6h-8.813L18,32h-4.594L21.382,9.991z M36,39H13v-4h23V39z"/>
</g>
</svg>
