<?xml version="1.0" standalone="no"?><!DOCTYPE svg PUBLIC "-//W3C//DTD SVG 1.1//EN" "http://www.w3.org/Graphics/SVG/1.1/DTD/svg11.dtd"><svg t="1526878528242" class="icon" style="" viewBox="0 0 1024 1024" version="1.1" xmlns="http://www.w3.org/2000/svg" p-id="3041" xmlns:xlink="http://www.w3.org/1999/xlink" width="127" height="127"><defs><style type="text/css"></style></defs><path d="M511.4368 0C228.9664 0 0 229.1968 0 511.9488c0 282.7264 228.9664 511.9488 511.4368 511.9488 282.4448 0 511.4368-229.2224 511.4368-511.9488C1022.8736 229.1968 793.856 0 511.4368 0z m0 972.6976c-254.208 0-460.288-206.2848-460.288-460.7488C51.1488 257.4848 257.2288 51.2 511.4368 51.2s460.288 206.2848 460.288 460.7488c0 254.464-206.08 460.7488-460.288 460.7488z m232.1408-497.024c-79.5648-54.2208-223.8976-135.3472-306.0736-185.6256-33.6896-21.2736-62.0288-12.7232-64.7424 24.832-1.9712 100.608 0 294.7328 0 397.056 1.7152 38.144 35.3024 43.1872 64.4352 27.8784l305.664-185.3696c-0.512-0.3328 62.6432-35.1232 0.7168-78.7712z" p-id="3042" fill="#ffffff"></path></svg>