<?xml version="1.0" standalone="no"?><!DOCTYPE svg PUBLIC "-//W3C//DTD SVG 1.1//EN" "http://www.w3.org/Graphics/SVG/1.1/DTD/svg11.dtd"><svg t="1522229490104" class="icon" style="" viewBox="0 0 1024 1024" version="1.1" xmlns="http://www.w3.org/2000/svg" p-id="3081" xmlns:xlink="http://www.w3.org/1999/xlink" width="200" height="200"><defs><style type="text/css"></style></defs><path d="M608.415584 48.07992v9.462538c0 90.789211 72.375624 164.443556 161.374626 164.443556 28.643357 0 56.519481-7.672328 81.070929-22.24975l8.183816-4.859141 97.694306 171.348651-8.183816 4.859141c-77.490509 45.522478-104.343656 145.774226-59.844156 223.776224 14.065934 24.807193 34.525475 45.522478 59.076923 59.844156l8.183816 4.603396-97.694306 171.348652-8.183816-4.859141c-24.807193-14.321678-52.683317-21.738262-80.815185-21.738262-27.876124 0-55.496503 7.160839-79.792208 21.226773-25.062937 14.321678-45.778222 35.036963-60.0999 60.355645-14.065934 24.807193-21.738262 53.194805-21.482517 81.582417v9.462538H412.25974v-9.462538c-0.255744-43.732268-17.134865-84.907093-47.568431-115.852148-30.433566-30.945055-70.841159-47.824176-113.806194-47.824175-28.387612 0-56.263736 7.672328-80.559441 21.994006l-8.183816 4.85914-97.694306-171.348651 8.183817-4.859141c37.338661-21.994006 64.191808-57.542458 75.444555-99.484515 11.252747-42.197802 5.626374-86.185814-15.856144-123.78022-14.321678-25.062937-34.781219-45.778222-59.588411-59.844156l-8.183817-4.603397 97.694306-171.348651 8.183816 4.859141c24.807193 14.321678 52.939061 21.994006 81.326674 21.994006 27.876124 0 55.496503-7.416583 79.792207-21.226773 25.062937-14.321678 45.778222-35.036963 60.099901-60.355645 14.321678-25.062937 21.738262-53.450549 21.482517-82.34965V48.591409l195.388611-0.511489m0-46.545454h-195.644355c-12.275724 0-24.295704 4.859141-32.991009 13.810189-8.695305 8.695305-13.554446 20.715285-13.554446 32.991009v9.462538c0.255744 20.715285-5.114885 41.174825-15.344655 59.076923-10.22977 18.157842-25.062937 32.991009-42.965035 42.965035-17.390609 9.718282-36.827173 15.088911-56.775225 15.088911-20.203796 0-40.151848-5.370629-58.053946-15.856144l-8.183816-4.859141c-10.485514-5.882118-23.272727-7.672328-35.036963-4.347652-12.01998 3.324675-22.24975 10.997003-28.387613 21.738262l-97.694305 171.348651c-12.787213 22.24975-5.114885 50.381618 17.134865 63.168831l8.183816 4.603397c17.646354 10.22977 32.223776 24.807193 42.453547 42.70929 15.344655 27.108891 19.436563 58.565435 11.508491 88.999001-8.183816 30.433566-27.364635 55.752248-54.217782 71.608392l-7.928072 4.859141c-21.994006 12.787213-29.410589 40.919081-16.623377 62.913087l97.694306 171.348651c8.183816 14.577423 23.528472 23.272727 40.407592 23.528472 8.183816 0 16.367632-2.301698 23.528472-6.393607l8.183816-4.859141c17.134865-10.22977 37.082917-15.6004 57.030969-15.600399 30.433566 0 59.076923 12.01998 80.815185 34.013986 21.994006 22.24975 34.013986 51.916084 34.26973 83.372627v9.462538c0 25.574426 20.971029 46.28971 46.289711 46.28971h195.644355c12.275724 0 24.03996-4.859141 32.991009-13.554446 8.695305-8.695305 13.554446-20.45954 13.554446-32.991009v-9.462537c0-20.45954 5.370629-40.663337 15.344655-58.565435 10.22977-17.902098 25.062937-32.735265 42.709291-42.965035 17.390609-9.718282 36.827173-15.088911 56.775225-15.088911 20.203796 0 40.151848 5.370629 57.798201 15.6004l8.183817 4.859141c10.741259 6.137862 23.528472 7.928072 35.292707 4.603396 12.01998-3.324675 21.994006-10.997003 28.131868-21.738261l97.694306-171.348652c12.531469-22.24975 5.114885-50.381618-17.134865-63.168831l-8.183817-4.603396c-17.390609-9.974026-31.968032-24.807193-42.197802-42.453547-31.968032-56.007992-12.787213-128.127872 42.965035-160.607393l8.183816-4.85914c21.994006-12.787213 29.410589-40.919081 16.879121-63.168832l-97.694306-171.348651c-8.183816-14.577423-23.528472-23.528472-40.407592-23.528471-8.43956 0-16.623377 2.301698-23.784216 6.393606l-8.183816 4.859141c-17.390609 10.22977-37.082917 15.856144-57.286713 15.856144-63.424575 0-115.084915-52.939061-115.084915-118.153846v-9.462538c0.255744-25.574426-20.715285-46.545455-46.289711-46.545454z m0 0" p-id="3082" fill="#9b9bab"></path><path d="M510.465534 318.657343c105.622378 0 191.552448 86.953047 191.552448 193.598401S616.087912 705.854146 510.465534 705.854146c-105.622378 0-191.552448-86.953047-191.552447-193.598402s85.93007-193.598402 191.552447-193.598401m0-46.545455c-131.196803 0-237.842158 107.668332-237.842157 239.888112 0 132.21978 106.645355 239.888112 237.842157 239.888112s237.842158-107.668332 237.842158-239.888112c0-132.21978-106.645355-239.888112-237.842158-239.888112z m0 0" p-id="3083" fill="#9b9bab"></path></svg>