<?xml version="1.0" standalone="no"?><!DOCTYPE svg PUBLIC "-//W3C//DTD SVG 1.1//EN" "http://www.w3.org/Graphics/SVG/1.1/DTD/svg11.dtd"><svg t="1528250292191" class="icon" style="" viewBox="0 0 1024 1024" version="1.1" xmlns="http://www.w3.org/2000/svg" p-id="1209" xmlns:xlink="http://www.w3.org/1999/xlink" width="200" height="200"><defs><style type="text/css"></style></defs><path d="M959.512778 525.011338c0-17.575284-14.33652-31.843242-31.999808-31.843242-17.667382 0-32.001855 14.267958-32.001855 31.843242v298.060443c0 17.579377-14.33652 31.843242-31.999808 31.843243H159.494039c-17.663288 0-31.999808-14.263865-31.999808-31.843243V302.121945c0-17.575284 14.33652-31.843242 31.999808-31.843242h224.004797c17.667382 0 32.001855-14.265912 32.001855-31.841196 0-17.577331-14.334473-31.843242-32.001855-31.843242-1.02433 0-1.88493 0.476861-2.880607 0.574075H159.876756c-52.958142 0-95.904257 42.796712-95.904257 95.586009v520.828062c0 52.795437 42.945091 95.586009 95.904257 95.586009h704.239325c52.962236 0 95.910397-42.790572 95.910397-95.586009V525.011338h-0.5137zM401.95007 631.115911c-1.919722 4.136204-3.167133 8.624425-3.167133 13.465687 0 17.698081 14.326287 32.063253 31.979342 32.063253 15.441691 0 27.725458-11.189853 30.729885-25.811876h0.639567c37.09485-190.066847 193.848986-336.916403 388.40303-358.974791l-67.728544 67.909669c-12.500709 12.535501-12.500709 32.832779 0 45.335535 12.502755 12.537548 32.744775 12.537548 45.214785 0L950.466752 282.33325c12.504802-12.533454 12.504802-32.830733 0-45.335534L828.019978 114.232694c-12.502755-12.537548-32.744775-12.537548-45.214784 0-12.500709 12.533454-12.500709 32.828686 0 45.335535l67.472718 67.651796c-222.918046 22.252817-402.825508 188.111309-448.327842 403.895886z" p-id="1210" fill="#f9493e"></path></svg>