<?xml version="1.0" standalone="no"?><!DOCTYPE svg PUBLIC "-//W3C//DTD SVG 1.1//EN" "http://www.w3.org/Graphics/SVG/1.1/DTD/svg11.dtd"><svg t="1525829843359" class="icon" style="" viewBox="0 0 1024 1024" version="1.1" xmlns="http://www.w3.org/2000/svg" p-id="4787" xmlns:xlink="http://www.w3.org/1999/xlink" width="127" height="127"><defs><style type="text/css"></style></defs><path d="M957.866668 998.4 714.666668 998.4 714.666668 917.333332 917.333332 917.333332 917.333332 714.666668 998.4 714.666668 998.4 957.866668C998.4 980.16 980.322132 998.4 957.866668 998.4L957.866668 998.4ZM106.666667 917.333332 309.333332 917.333332 309.333332 998.4 66.133333 998.4C43.758933 998.4 25.6 980.16 25.6 957.866668L25.6 714.666668 106.666667 714.666668 106.666667 917.333332 106.666667 917.333332ZM998.4 552.533332 25.6 552.533332 25.6 471.466668 998.4 471.466668 998.4 552.533332 998.4 552.533332ZM998.4 309.333332 917.333332 309.333332 917.333332 106.666667 714.666668 106.666667 714.666668 25.6 957.866668 25.6C980.2816 25.6 998.4 43.84 998.4 66.133333L998.4 309.333332 998.4 309.333332ZM309.333332 106.666667 106.666667 106.666667 106.666667 309.333332 25.6 309.333332 25.6 66.133333C25.6 43.84 43.7184 25.6 66.133333 25.6L309.333332 25.6 309.333332 106.666667 309.333332 106.666667Z" p-id="4788" fill="#f9493e"></path></svg>