<?xml version="1.0" standalone="no"?><!DOCTYPE svg PUBLIC "-//W3C//DTD SVG 1.1//EN" "http://www.w3.org/Graphics/SVG/1.1/DTD/svg11.dtd"><svg t="1525829785406" class="icon" style="" viewBox="0 0 1024 1024" version="1.1" xmlns="http://www.w3.org/2000/svg" p-id="4615" xmlns:xlink="http://www.w3.org/1999/xlink" width="127" height="127"><defs><style type="text/css"></style></defs><path d="M877.568 549.376h-727.04c-25.088 0-46.08-20.48-46.08-46.08 0-25.088 20.48-46.08 46.08-46.08h727.04c25.088 0 46.08 20.48 46.08 46.08 0 25.088-20.992 46.08-46.08 46.08zM392.192 948.224c0 23.552-19.456 43.008-43.008 43.008H263.68c-130.56 0-237.568-107.008-237.568-237.568v-101.376c0-23.552 19.456-43.008 43.008-43.008 23.552 0 43.008 19.456 43.008 43.008v88.576c0 90.624 74.24 164.352 164.352 164.352h72.704c23.552 0 43.008 18.944 43.008 43.008zM1001.472 652.288v101.376c0 130.56-107.008 237.568-237.568 237.568h-85.504c-23.552 0-43.008-19.456-43.008-43.008 0-23.552 19.456-43.008 43.008-43.008h72.704c90.624 0 164.352-74.24 164.352-164.352v-88.576c0-23.552 19.456-43.008 43.008-43.008 24.064 0 43.008 18.944 43.008 43.008zM1001.472 252.928V322.56c0 23.552-19.456 43.008-43.008 43.008-23.552 0-43.008-19.456-43.008-43.008V265.728c0-90.624-74.24-164.352-164.352-164.352h-72.704c-23.552 0-43.008-19.456-43.008-43.008 0-23.552 19.456-43.008 43.008-43.008h85.504c130.56 0 237.568 107.008 237.568 237.568zM392.192 58.368c0 23.552-19.456 43.008-43.008 43.008H276.48c-90.624 0-164.352 74.24-164.352 164.352V322.56c0 23.552-19.456 43.008-43.008 43.008-23.552 0-43.008-19.456-43.008-43.008V252.928C26.112 122.368 133.12 15.36 263.68 15.36h85.504c23.552 0 43.008 19.456 43.008 43.008z" fill="#f9493e" p-id="4616"></path></svg>