<?xml version="1.0" standalone="no"?><!DOCTYPE svg PUBLIC "-//W3C//DTD SVG 1.1//EN" "http://www.w3.org/Graphics/SVG/1.1/DTD/svg11.dtd"><svg t="1525830069410" class="icon" style="" viewBox="0 0 1024 1024" version="1.1" xmlns="http://www.w3.org/2000/svg" p-id="6250" xmlns:xlink="http://www.w3.org/1999/xlink" width="127" height="127"><defs><style type="text/css"></style></defs><path d="M851.709 64.223H229.256c-60.911 0-116.701 53.737-116.701 114.789v45.913h68.873s0.367-25.8 0-45.913c0.725-31.711 14.282-45.897 45.915-45.915h619.858c31.771 0 45.915 14.107 45.915 45.915v665.774c0 31.803-14.147 45.915-45.915 45.915H227.344c-31.771 0-45.915-14.112-45.915-45.915v-45.918h-68.873v45.918c0 61.047 55.79 114.773 116.701 114.773H851.71C912.623 959.558 962 910.07 962 849.021V174.76c0-61.049-49.377-110.537-110.291-110.537zM92.41 379.428h138.267c14.241 0 25.786-11.587 25.786-25.88s-11.545-25.878-25.786-25.878H92.41c-14.241 0-25.786 11.584-25.786 25.878s11.545 25.88 25.786 25.88z m0 157.791h138.267c14.241 0 25.786-11.587 25.786-25.878 0-14.296-11.545-25.88-25.786-25.88H92.41c-14.241 0-25.786 11.584-25.786 25.88 0 14.291 11.545 25.878 25.786 25.878z m164.053 132.698c0-14.291-11.545-25.878-25.786-25.878H92.41c-14.241 0-25.786 11.587-25.786 25.878 0 14.293 11.545 25.88 25.786 25.88h138.267c14.241 0 25.786-11.587 25.786-25.88z m81.879 81.263l72.664 1.775c27.028-61.876 82.928-114.789 160.704-114.789 77.774 0 133.674 52.913 160.704 114.789l61.267-1.775c-19.039-60.978-65.762-111.033-126.708-137.705 51.138-32.88 85.031-90.408 85.031-155.881 0-102.171-82.535-184.998-184.346-184.998s-184.346 82.825-184.346 184.998c0 64.908 33.319 122 83.72 155.015-61.917 26.446-109.442 76.932-128.69 138.571z m118.464-296.485c0-30.692 11.943-59.545 33.628-81.247 21.684-21.704 50.516-33.656 81.183-33.656s59.497 11.952 81.183 33.656c21.684 21.702 33.626 50.555 33.626 81.247s-11.943 59.548-33.626 81.25c-21.686 21.702-50.516 33.656-81.183 33.656s-59.497-11.954-81.183-33.656c-21.685-21.702-33.628-50.558-33.628-81.25z" p-id="6251" fill="#f9493e"></path></svg>