<?xml version="1.0" encoding="iso-8859-1"?>
<!-- Generator: Adobe Illustrator 15.0.0, SVG Export Plug-In . SVG Version: 6.00 Build 0)  -->
<!DOCTYPE svg PUBLIC "-//W3C//DTD SVG 1.1//EN" "http://www.w3.org/Graphics/SVG/1.1/DTD/svg11.dtd">
<svg fill="#fff" version="1.1" id="&#x56FE;&#x5C42;_1" xmlns="http://www.w3.org/2000/svg" xmlns:xlink="http://www.w3.org/1999/xlink" x="0px"
	 y="0px" width="42.305px" height="43.012px" viewBox="0 0 42.305 43.012" style="enable-background:new 0 0 42.305 43.012;"
	 xml:space="preserve">
<g>
	<g>
		<path style="fill-rule:evenodd;clip-rule:evenodd;" d="M24.334,21.506L42.012,3.829c0.391-0.391,0.391-1.024,0-1.415L40.598,1
			c-0.391-0.39-1.023-0.39-1.414,0L21.506,18.678L3.121,0.293c-0.391-0.391-1.023-0.391-1.414,0L0.292,1.708
			c-0.39,0.39-0.39,1.023,0,1.414l18.385,18.385L0.293,39.891c-0.391,0.391-0.391,1.023,0,1.414l1.414,1.414
			c0.391,0.391,1.024,0.391,1.414,0l18.385-18.385l17.678,17.678c0.391,0.391,1.023,0.391,1.414,0l1.414-1.414
			c0.391-0.391,0.391-1.023,0-1.414L24.334,21.506z"/>
	</g>
</g>
</svg>
