<?xml version="1.0" standalone="no"?><!DOCTYPE svg PUBLIC "-//W3C//DTD SVG 1.1//EN" "http://www.w3.org/Graphics/SVG/1.1/DTD/svg11.dtd"><svg t="1525944584797" class="icon" style="" viewBox="0 0 1024 1024" version="1.1" xmlns="http://www.w3.org/2000/svg" p-id="1912" xmlns:xlink="http://www.w3.org/1999/xlink" width="127" height="127"><defs><style type="text/css"></style></defs><path d="M868.380198 352.132966c-32.341592-8.497535-108.479667-8.395204-219.788775-11.320836 5.284353-24.308639 6.473435-46.198182 6.473435-85.08791 0-92.911086-67.667146-174.72851-127.544885-174.72851-42.277896 0-77.150124 34.56626-77.679174 77.072353-0.582261 52.139497-16.690124 142.201699-103.572914 187.876971-6.374174 3.355421-24.603351 12.332886-27.259854 13.519921l1.36509 1.163499c-13.603833-11.733229-32.4429-20.707624-51.785433-20.707624l-77.679174 0c-42.835597 0-77.680197 34.852786-77.680197 77.68736l0 414.290631c0 42.832528 34.844599 77.679174 77.680197 77.679174l77.679174 0c30.824029 0 56.590879-18.611893 69.082378-44.706201 0.302899 0.101307 0.859577 0.243547 1.213641 0.302899 1.721201 0.455371 3.718695 0.960885 6.196119 1.617847 0.454348 0.093121 0.708128 0.151449 1.189082 0.303922 14.917758 3.692089 43.618427 10.56973 104.989169 24.670889 13.174044 2.992147 82.635045 17.809621 154.676825 17.809621l141.52734 0c43.164079 0 74.240865-16.587793 92.750427-49.913806 0.277316-0.506537 6.246261-12.138458 11.101849-27.864628 3.640923-11.834536 5.006014-28.575826 0.607844-45.574988 27.788903-19.108197 36.739762-47.986921 42.581818-66.797335 9.735735-30.848589 6.800893-54.011124 0.022513-70.599941 15.626909-14.758122 28.987195-37.270858 34.618449-71.609944 3.487428-21.282722-0.254803-43.189661-10.089799-61.429071 14.666024-16.461927 21.36868-37.170574 22.101367-56.339146l0.302899-5.411243c0.202615-3.413749 0.355087-5.511527 0.355087-12.963243C941.810604 408.343175 919.180188 366.646518 868.380198 352.132966zM195.223798 831.897797c-21.442358 0-38.839587-17.406438-38.839587-38.839587 0-21.443381 17.397229-38.847773 38.839587-38.847773 21.443381 0 38.839587 17.404392 38.839587 38.847773C234.063385 814.492382 216.66718 831.897797 195.223798 831.897797zM294.48143 831.897797c0 11.282974-7.202029 20.86112-17.262152 24.409946 2.699482 0.953721 5.603625 1.475608 8.631588 1.475608l-17.263176 0c3.027963 0 5.931083-0.523933 8.631588-1.475608-10.060123-3.548826-17.262152-13.123902-17.262152-24.409946L259.957125 417.607166c0-11.290137 7.202029-20.8734 17.262152-24.425296-2.699482-0.952698-5.603625-1.476631-8.631588-1.476631l17.262152 0c-3.027963 0-5.931083 0.523933-8.631588 1.476631 10.061147 3.551896 17.262152 13.134135 17.262152 24.425296L294.48143 831.897797 294.48143 831.897797z" p-id="1913" fill="#a3a8ad"></path></svg>